{"title":"The Devil Inside 2012 CAM SeT-CM8","uid":6959660,"size":735021139,"categoryP":"video","categoryS":"movies","magnet":"?xt=urn:btih:63c8f249de0df9f23d5d6c9deb7f58241bb4f340&amp;dn=The+Devil+Inside+2012+CAM+SeT-CM8&amp;tr=udp%3A%2F%2Ftracker.openbittorrent.com%3A80&amp;tr=udp%3A%2F%2Fopen.demonii.com%3A1337&amp;tr=udp%3A%2F%2Ftracker.coppersurfer.tk%3A6969&amp;tr=udp%3A%2F%2Fexodus.desync.com%3A6969","seeders":2,"leechers":1,"uploader":"LegendET","files":4,"time":1326719128,"description":"The.Devil.Inside.2012.CAM.SeT-CM8\n\nSource: INFERNO thank you very much guys\n\nBitrate : 1273 Kbps\nVideo : 624 x 320\nAudio : English MP3\nSample : Yes, included\n\n\n &lt;a href=&quot;\nhttp://www.imdb.com/title/tt1560985/&quot; rel=&quot;nofollow&quot; target=&quot;_NEW&quot;&gt;\nhttp://www.imdb.com/title/tt1560985/&lt;/a&gt;\n\n\nComplete name : The.Devil.Inside.2012.Cam.SeT-CM8.avi\nFormat : AVI\nFormat/Info : Audio Video Interleave\nFile size : 686 MiB\nDuration : 1h 15mn\nOverall bit rate : 1 273 Kbps\nWriting library : VirtualDub build 30091/release\n\nVideo\nID : 0\nFormat : MPEG-4 Visual\nFormat profile : Advanced Simple@L5\nFormat settings, BVOP : 2\nFormat settings, QPel : No\nFormat settings, GMC : No warppoints\nFormat settings, Matrix : Default (H.263)\nCodec ID : XVID\nCodec ID/Hint : XviD\nDuration : 1h 15mn\nBit rate : 1 134 Kbps\nWidth : 624 pixels\nHeight : 320 pixels\nDisplay aspect ratio : 1.950\nFrame rate : 29.970 fps\nColor space : YUV\nChroma subsampling : 4:2:0\nBit depth : 8 bits\nScan type : Progressive\nCompression mode : Lossy\nBits/(Pixel*Frame) : 0.189\nStream size : 610 MiB (89%)\nWriting library : XviD 1.2.1 (UTC 2008-12-04)\n\nAudio\nID : 1\nFormat : MPEG Audio\nFormat version : Version 1\nFormat profile : Layer 3\nMode : Joint stereo\nMode extension : MS Stereo\nCodec ID : 55\nCodec ID/Hint : MP3\nDuration : 1h 15mn\nBit rate mode : Constant\nBit rate : 128 Kbps\nChannel(s) : 2 channels\nSampling rate : 44.1 KHz\nCompression mode : Lossy\nStream size : 68.9 MiB (10%)\nAlignment : Split accross interleaves\nInterleave, duration : 33 ms (1.00 video frame)\nInterleave, preload duration : 500 ms\n\n\nCast\n\nFernanda Andrade ... Isabella Rossi\nSimon Quarterman ... Father Ben Rawlings\nEvan Helmuth ... Father David Keane\nIonut Grama ... Michael Schaefer\nSuzan Crowley ... Maria Rossi\n\n\n\n\nStoryline\n\nIn Italy, a woman becomes involved in a series of unauthorized exorcisms during her mission to discover what happened to her mother,\nwho allegedly murdered three people during her own exorcism.\n &lt;a href=&quot;\nhttp://img11.imageshack.us/img11/7866/iuhjkmnbv.png&quot; rel=&quot;nofollow&quot; target=&quot;_NEW&quot;&gt;\nhttp://img11.imageshack.us/img11/7866/iuhjkmnbv.png&lt;/a&gt;\n &lt;a href=&quot;\nhttp://img829.imageshack.us/img829/9416/lkjhgfdsat.png&quot; rel=&quot;nofollow&quot; target=&quot;_NEW&quot;&gt;\nhttp://img829.imageshack.us/img829/9416/lkjhgfdsat.png&lt;/a&gt;","torrent":{"xt":"urn:btih:63c8f249de0df9f23d5d6c9deb7f58241bb4f340","amp;dn":"The+Devil+Inside+2012+CAM+SeT-CM8","amp;tr":["udp%3A%2F%2Ftracker.openbittorrent.com%3A80","udp%3A%2F%2Fopen.demonii.com%3A1337","udp%3A%2F%2Ftracker.coppersurfer.tk%3A6969","udp%3A%2F%2Fexodus.desync.com%3A6969"],"infoHash":"63c8f249de0df9f23d5d6c9deb7f58241bb4f340","infoHashBuffer":{"type":"Buffer","data":[99,200,242,73,222,13,249,242,61,93,108,157,235,127,88,36,27,180,243,64]},"announce":[],"urlList":[]}}